<svg width="25" height="25" viewBox="0 0 25 25" fill="none" xmlns="http://www.w3.org/2000/svg">
<g clip-path="url(#clip0)">
<path d="M12.8022 1.85922V23.8592" stroke="black" stroke-width="2" stroke-linecap="round" stroke-linejoin="round"/>
<path d="M17.8022 5.85922H10.3022C9.37399 5.85922 8.48375 6.22797 7.82737 6.88435C7.171 7.54073 6.80225 8.43096 6.80225 9.35922C6.80225 10.2875 7.171 11.1777 7.82737 11.8341C8.48375 12.4905 9.37399 12.8592 10.3022 12.8592H15.3022C16.2305 12.8592 17.1207 13.228 17.7771 13.8843C18.4335 14.5407 18.8022 15.431 18.8022 16.3592C18.8022 17.2875 18.4335 18.1777 17.7771 18.8341C17.1207 19.4905 16.2305 19.8592 15.3022 19.8592H6.80225" stroke="black" stroke-width="2" stroke-linecap="round" stroke-linejoin="round"/>
</g>
<defs>
<clipPath id="clip0">
<rect width="24" height="24" fill="white" transform="translate(0.802246 0.859222)"/>
</clipPath>
</defs>
</svg>
