<svg width="256" height="256" viewBox="0 0 256 256" fill="none" xmlns="http://www.w3.org/2000/svg">
<g clip-path="url(#clip0)">
<path d="M112.927 128L3.14525 237.782C-3.57369 244.501 1.18492 255.989 10.6871 255.989L128.011 255.989C130.84 255.989 133.552 254.866 135.553 252.866L252.876 135.542C257.041 131.377 257.041 124.624 252.876 120.458L135.553 3.13474C133.552 1.1344 130.84 0.0110059 128.011 0.0110057L10.6871 0.0109954C1.18494 0.0109946 -3.57367 11.4995 3.14527 18.2185L112.927 128ZM123.593 21.3422L230.251 128L123.593 234.658L36.4365 234.658L135.553 135.542C139.718 131.377 139.718 124.624 135.553 120.458L36.437 21.3427L123.593 21.3427L123.593 21.3422Z" fill="#18157A"/>
</g>
<defs>
<clipPath id="clip0">
<rect width="256" height="256" fill="white" transform="translate(256 256) rotate(-180)"/>
</clipPath>
</defs>
</svg>
