<svg width="256" height="256" viewBox="0 0 256 256" fill="none" xmlns="http://www.w3.org/2000/svg">
<g clip-path="url(#clip0)">
<path d="M143.073 128L252.855 18.2185C259.574 11.499 254.815 0.010498 245.313 0.010498H127.989C125.16 0.010498 122.448 1.1344 120.447 3.13424L3.12362 120.458C-1.04153 124.623 -1.04153 131.376 3.12362 135.542L120.447 252.865C122.448 254.866 125.16 255.989 127.989 255.989H245.313C254.815 255.989 259.574 244.5 252.855 237.782L143.073 128ZM132.407 234.658L25.7492 128L132.407 21.3422H219.563L120.447 120.458C116.282 124.623 116.282 131.376 120.447 135.542L219.563 234.657H132.407V234.658Z" fill="#18157A"/>
</g>
<defs>
<clipPath id="clip0">
<rect width="256" height="256" fill="white"/>
</clipPath>
</defs>
</svg>
