<svg width="48" height="48" viewBox="0 0 48 48" fill="none" xmlns="http://www.w3.org/2000/svg">
<path d="M39.6907 41.6753V37.7062C39.6907 35.6009 38.8543 33.5818 37.3657 32.0931C35.877 30.6044 33.8579 29.768 31.7525 29.768H15.8763C13.7709 29.768 11.7518 30.6044 10.2631 32.0931C8.77445 33.5818 7.93811 35.6009 7.93811 37.7062V41.6753" fill="white"/>
<path d="M39.6907 41.6753V37.7062C39.6907 35.6009 38.8543 33.5818 37.3657 32.0931C35.877 30.6044 33.8579 29.768 31.7525 29.768H15.8763C13.7709 29.768 11.7518 30.6044 10.2631 32.0931C8.77445 33.5818 7.93811 35.6009 7.93811 37.7062V41.6753" stroke="black" stroke-width="2" stroke-linecap="round" stroke-linejoin="round"/>
<path d="M23.8145 21.8299C28.1986 21.8299 31.7526 18.2759 31.7526 13.8918C31.7526 9.50764 28.1986 5.95361 23.8145 5.95361C19.4304 5.95361 15.8763 9.50764 15.8763 13.8918C15.8763 18.2759 19.4304 21.8299 23.8145 21.8299Z" fill="white" stroke="black" stroke-width="2" stroke-linecap="round" stroke-linejoin="round"/>
</svg>
